<svg xmlns="http://www.w3.org/2000/svg" viewBox="230.39999999999998 86.39999999999998 2419.2 2419.2"><line stroke="#000" opacity="1" x1="500" y1="400" x2="2400" y2="400" stroke-width="6.72"/><line stroke="#000" opacity="1" x1="2400" y1="400" x2="2400" y2="2200" stroke-width="6.72"/><line stroke="#000" opacity="1" x1="500" y1="400" x2="500" y2="2200" stroke-width="6.72"/><line stroke="#000" opacity="1" x1="500" y1="2200" x2="2400" y2="2200" stroke-width="6.72"/><line stroke="#00f" opacity="0.43200785995499613" x1="500" y1="1124" x2="1444" y2="984" stroke-width="6.72"/><line stroke="#f00" opacity="0.6462283284311299" x1="1444" y1="984" x2="1264" y2="400" stroke-width="6.72"/><line stroke="#f00" opacity="0.6600496709510036" x1="603" y1="400" x2="1435" y2="1793" stroke-width="6.72"/><line stroke="#f00" opacity="0.019882716584438187" x1="1435" y1="1793" x2="934" y2="400" stroke-width="6.72"/><line stroke="#f00" opacity="0.8277379983450809" x1="1067" y1="400" x2="1036" y2="1614" stroke-width="6.72"/><line stroke="#00f" opacity="0.16384883547978324" x1="1036" y1="1614" x2="586" y2="400" stroke-width="6.72"/><line stroke="#f00" opacity="0.6634656863689142" x1="625" y1="400" x2="912" y2="1877" stroke-width="6.72"/><line stroke="#00f" opacity="0.2089664782011902" x1="912" y1="1877" x2="904" y2="400" stroke-width="6.72"/><line stroke="#00f" opacity="0.43200785995499613" x1="2400" y1="1124" x2="1456" y2="984" stroke-width="6.72"/><line stroke="#f00" opacity="0.6462283284311299" x1="1456" y1="984" x2="1636" y2="400" stroke-width="6.72"/><line stroke="#f00" opacity="0.6600496709510036" x1="2297" y1="400" x2="1465" y2="1793" stroke-width="6.72"/><line stroke="#f00" opacity="0.019882716584438187" x1="1465" y1="1793" x2="1966" y2="400" stroke-width="6.72"/><line stroke="#f00" opacity="0.8277379983450809" x1="1833" y1="400" x2="1864" y2="1614" stroke-width="6.72"/><line stroke="#00f" opacity="0.16384883547978324" x1="1864" y1="1614" x2="2314" y2="400" stroke-width="6.72"/><line stroke="#f00" opacity="0.6634656863689142" x1="2275" y1="400" x2="1988" y2="1877" stroke-width="6.72"/><line stroke="#00f" opacity="0.2089664782011902" x1="1988" y1="1877" x2="1996" y2="400" stroke-width="6.72"/></svg>