<svg xmlns="http://www.w3.org/2000/svg" viewBox="230.39999999999998 86.39999999999998 2419.2 2419.2"><line stroke="#000" opacity="1" x1="500" y1="400" x2="2400" y2="400" stroke-width="6.72"/><line stroke="#000" opacity="1" x1="2400" y1="400" x2="2400" y2="2200" stroke-width="6.72"/><line stroke="#000" opacity="1" x1="500" y1="400" x2="500" y2="2200" stroke-width="6.72"/><line stroke="#000" opacity="1" x1="500" y1="2200" x2="2400" y2="2200" stroke-width="6.72"/><line stroke="#00f" opacity="1" x1="500" y1="1843" x2="1360" y2="2101" stroke-width="6.72"/><line stroke="#f00" opacity="1" x1="1360" y1="2101" x2="542" y2="400" stroke-width="6.72"/><line stroke="#f00" opacity="1" x1="500" y1="565" x2="672" y2="2042" stroke-width="6.72"/><line stroke="#f00" opacity="1" x1="672" y1="2042" x2="500" y2="1890" stroke-width="6.72"/><line stroke="#f00" opacity="1" x1="500" y1="2053" x2="572" y2="808" stroke-width="6.72"/><line stroke="#00f" opacity="1" x1="572" y1="808" x2="500" y2="1202" stroke-width="6.72"/><line stroke="#f00" opacity="1" x1="500" y1="1104" x2="823" y2="1516" stroke-width="6.72"/><line stroke="#f00" opacity="1" x1="823" y1="1516" x2="792" y2="400" stroke-width="6.72"/><line stroke="#00f" opacity="1" x1="2400" y1="1843" x2="1540" y2="2101" stroke-width="6.72"/><line stroke="#f00" opacity="1" x1="1540" y1="2101" x2="2358" y2="400" stroke-width="6.72"/><line stroke="#f00" opacity="1" x1="2400" y1="565" x2="2228" y2="2042" stroke-width="6.72"/><line stroke="#00f" opacity="1" x1="2228" y1="2042" x2="2400" y2="1890" stroke-width="6.72"/><line stroke="#f00" opacity="1" x1="2400" y1="2053" x2="2328" y2="808" stroke-width="6.72"/><line stroke="#f00" opacity="1" x1="2328" y1="808" x2="2400" y2="1202" stroke-width="6.72"/><line stroke="#00f" opacity="1" x1="2400" y1="1104" x2="2077" y2="1516" stroke-width="6.72"/><line stroke="#f00" opacity="1" x1="2077" y1="1516" x2="2108" y2="400" stroke-width="6.72"/></svg>