<svg xmlns="http://www.w3.org/2000/svg" viewBox="230.39999999999998 86.39999999999998 2419.2 2419.2"><line stroke="#000" opacity="1" x1="500" y1="400" x2="2400" y2="400" stroke-width="6.72"/><line stroke="#000" opacity="1" x1="2400" y1="400" x2="2400" y2="2200" stroke-width="6.72"/><line stroke="#000" opacity="1" x1="500" y1="400" x2="500" y2="2200" stroke-width="6.72"/><line stroke="#000" opacity="1" x1="500" y1="2200" x2="2400" y2="2200" stroke-width="6.72"/><line stroke="#f00" opacity="0.5681481349103856" x1="1186" y1="400" x2="923" y2="1894" stroke-width="6.72"/><line stroke="#f00" opacity="0.3889259814411502" x1="923" y1="1894" x2="500" y2="2070" stroke-width="6.72"/><line stroke="#00f" opacity="0.9141509729812801" x1="500" y1="1565" x2="1255" y2="588" stroke-width="6.72"/><line stroke="#f00" opacity="0.8778987631841232" x1="1255" y1="588" x2="782" y2="400" stroke-width="6.72"/><line stroke="#00f" opacity="0.513736436195522" x1="872" y1="400" x2="785" y2="1332" stroke-width="6.72"/><line stroke="#00f" opacity="0.3945640683703796" x1="785" y1="1332" x2="500" y2="2030" stroke-width="6.72"/><line stroke="#f00" opacity="0.1282894847481536" x1="500" y1="757" x2="974" y2="1269" stroke-width="6.72"/><line stroke="#f00" opacity="0.6285842017871058" x1="974" y1="1269" x2="1181" y2="400" stroke-width="6.72"/><line stroke="#f00" opacity="0.5681481349103856" x1="1714" y1="400" x2="1977" y2="1894" stroke-width="6.72"/><line stroke="#f00" opacity="0.3889259814411502" x1="1977" y1="1894" x2="2400" y2="2070" stroke-width="6.72"/><line stroke="#00f" opacity="0.9141509729812801" x1="2400" y1="1565" x2="1645" y2="588" stroke-width="6.72"/><line stroke="#f00" opacity="0.8778987631841232" x1="1645" y1="588" x2="2118" y2="400" stroke-width="6.72"/><line stroke="#00f" opacity="0.513736436195522" x1="2028" y1="400" x2="2115" y2="1332" stroke-width="6.72"/><line stroke="#00f" opacity="0.3945640683703796" x1="2115" y1="1332" x2="2400" y2="2030" stroke-width="6.72"/><line stroke="#f00" opacity="0.1282894847481536" x1="2400" y1="757" x2="1926" y2="1269" stroke-width="6.72"/><line stroke="#f00" opacity="0.6285842017871058" x1="1926" y1="1269" x2="1719" y2="400" stroke-width="6.72"/></svg>