<svg xmlns="http://www.w3.org/2000/svg" viewBox="230.39999999999998 86.39999999999998 2419.2 2419.2"><line stroke="#000" opacity="1" x1="500" y1="400" x2="2400" y2="400" stroke-width="6.72"/><line stroke="#000" opacity="1" x1="2400" y1="400" x2="2400" y2="2200" stroke-width="6.72"/><line stroke="#000" opacity="1" x1="500" y1="400" x2="500" y2="2200" stroke-width="6.72"/><line stroke="#000" opacity="1" x1="500" y1="2200" x2="2400" y2="2200" stroke-width="6.72"/><line stroke="#f00" opacity="1" x1="769" y1="400" x2="1020" y2="1840" stroke-width="6.72"/><line stroke="#00f" opacity="1" x1="1020" y1="1840" x2="1313" y2="400" stroke-width="6.72"/><line stroke="#00f" opacity="1" x1="500" y1="1209" x2="740" y2="1308" stroke-width="6.72"/><line stroke="#00f" opacity="1" x1="740" y1="1308" x2="500" y2="817" stroke-width="6.72"/><line stroke="#f00" opacity="1" x1="500" y1="1643" x2="665" y2="1845" stroke-width="6.72"/><line stroke="#00f" opacity="1" x1="665" y1="1845" x2="1013" y2="400" stroke-width="6.72"/><line stroke="#f00" opacity="1" x1="1418" y1="400" x2="541" y2="1821" stroke-width="6.72"/><line stroke="#00f" opacity="1" x1="541" y1="1821" x2="500" y2="1539" stroke-width="6.72"/><line stroke="#f00" opacity="1" x1="2131" y1="400" x2="1880" y2="1840" stroke-width="6.72"/><line stroke="#00f" opacity="1" x1="1880" y1="1840" x2="1587" y2="400" stroke-width="6.72"/><line stroke="#f00" opacity="1" x1="2400" y1="1209" x2="2160" y2="1308" stroke-width="6.72"/><line stroke="#00f" opacity="1" x1="2160" y1="1308" x2="2400" y2="817" stroke-width="6.72"/><line stroke="#f00" opacity="1" x1="2400" y1="1643" x2="2235" y2="1845" stroke-width="6.72"/><line stroke="#f00" opacity="1" x1="2235" y1="1845" x2="1887" y2="400" stroke-width="6.72"/><line stroke="#00f" opacity="1" x1="1482" y1="400" x2="2359" y2="1821" stroke-width="6.72"/><line stroke="#00f" opacity="1" x1="2359" y1="1821" x2="2400" y2="1539" stroke-width="6.72"/></svg>