<svg xmlns="http://www.w3.org/2000/svg" viewBox="230.39999999999998 86.39999999999998 2419.2 2419.2"><line stroke="#000" opacity="1" x1="500" y1="400" x2="2400" y2="400" stroke-width="6.72"/><line stroke="#000" opacity="1" x1="2400" y1="400" x2="2400" y2="2200" stroke-width="6.72"/><line stroke="#000" opacity="1" x1="500" y1="400" x2="500" y2="2200" stroke-width="6.72"/><line stroke="#000" opacity="1" x1="500" y1="2200" x2="2400" y2="2200" stroke-width="6.72"/><line stroke="#00f" opacity="1" x1="1299" y1="400" x2="516" y2="1135" stroke-width="6.72"/><line stroke="#00f" opacity="1" x1="516" y1="1135" x2="574" y2="400" stroke-width="6.72"/><line stroke="#f00" opacity="1" x1="500" y1="1888" x2="1019" y2="1979" stroke-width="6.72"/><line stroke="#f00" opacity="1" x1="1019" y1="1979" x2="500" y2="1690" stroke-width="6.72"/><line stroke="#00f" opacity="1" x1="689" y1="400" x2="965" y2="2181" stroke-width="6.72"/><line stroke="#00f" opacity="1" x1="965" y1="2181" x2="802" y2="400" stroke-width="6.72"/><line stroke="#f00" opacity="1" x1="500" y1="1218" x2="1056" y2="1084" stroke-width="6.72"/><line stroke="#00f" opacity="1" x1="1056" y1="1084" x2="1283" y2="400" stroke-width="6.72"/><line stroke="#f00" opacity="1" x1="1601" y1="400" x2="2384" y2="1135" stroke-width="6.72"/><line stroke="#00f" opacity="1" x1="2384" y1="1135" x2="2326" y2="400" stroke-width="6.72"/><line stroke="#00f" opacity="1" x1="2400" y1="1888" x2="1881" y2="1979" stroke-width="6.72"/><line stroke="#00f" opacity="1" x1="1881" y1="1979" x2="2400" y2="1690" stroke-width="6.72"/><line stroke="#f00" opacity="1" x1="2211" y1="400" x2="1935" y2="2181" stroke-width="6.72"/><line stroke="#00f" opacity="1" x1="1935" y1="2181" x2="2098" y2="400" stroke-width="6.72"/><line stroke="#00f" opacity="1" x1="2400" y1="1218" x2="1844" y2="1084" stroke-width="6.72"/><line stroke="#00f" opacity="1" x1="1844" y1="1084" x2="1617" y2="400" stroke-width="6.72"/></svg>