<svg xmlns="http://www.w3.org/2000/svg" viewBox="230.39999999999998 86.39999999999998 2419.2 2419.2"><line stroke="#000" opacity="1" x1="500" y1="400" x2="2400" y2="400" stroke-width="6.72"/><line stroke="#000" opacity="1" x1="2400" y1="400" x2="2400" y2="2200" stroke-width="6.72"/><line stroke="#000" opacity="1" x1="500" y1="400" x2="500" y2="2200" stroke-width="6.72"/><line stroke="#000" opacity="1" x1="500" y1="2200" x2="2400" y2="2200" stroke-width="6.72"/><line stroke="#f00" opacity="1" x1="500" y1="1329" x2="1276" y2="1196" stroke-width="6.72"/><line stroke="#f00" opacity="1" x1="1276" y1="1196" x2="1415" y2="1490" stroke-width="6.72"/><line stroke="#f00" opacity="1" x1="1415" y1="1490" x2="500" y2="528" stroke-width="6.72"/><line stroke="#f00" opacity="1" x1="862" y1="400" x2="616" y2="1559" stroke-width="6.72"/><line stroke="#f00" opacity="1" x1="616" y1="1559" x2="543" y2="1100" stroke-width="6.72"/><line stroke="#f00" opacity="1" x1="543" y1="1100" x2="1370" y2="400" stroke-width="6.72"/><line stroke="#f00" opacity="1" x1="500" y1="1450" x2="1082" y2="1783" stroke-width="6.72"/><line stroke="#f00" opacity="1" x1="1082" y1="1783" x2="1097" y2="488" stroke-width="6.72"/><line stroke="#f00" opacity="1" x1="1097" y1="488" x2="601" y2="400" stroke-width="6.72"/><line stroke="#f00" opacity="1" x1="2400" y1="1329" x2="1624" y2="1196" stroke-width="6.72"/><line stroke="#f00" opacity="1" x1="1624" y1="1196" x2="1485" y2="1490" stroke-width="6.72"/><line stroke="#f00" opacity="1" x1="1485" y1="1490" x2="2400" y2="528" stroke-width="6.72"/><line stroke="#f00" opacity="1" x1="2038" y1="400" x2="2284" y2="1559" stroke-width="6.72"/><line stroke="#f00" opacity="1" x1="2284" y1="1559" x2="2357" y2="1100" stroke-width="6.72"/><line stroke="#f00" opacity="1" x1="2357" y1="1100" x2="1530" y2="400" stroke-width="6.72"/><line stroke="#f00" opacity="1" x1="2400" y1="1450" x2="1818" y2="1783" stroke-width="6.72"/><line stroke="#f00" opacity="1" x1="1818" y1="1783" x2="1803" y2="488" stroke-width="6.72"/><line stroke="#f00" opacity="1" x1="1803" y1="488" x2="2299" y2="400" stroke-width="6.72"/></svg>