<svg xmlns="http://www.w3.org/2000/svg" viewBox="230.39999999999998 86.39999999999998 2419.2 2419.2"><line stroke="#000" opacity="1" x1="500" y1="400" x2="2400" y2="400" stroke-width="6.72"/><line stroke="#000" opacity="1" x1="2400" y1="400" x2="2400" y2="2200" stroke-width="6.72"/><line stroke="#000" opacity="1" x1="500" y1="400" x2="500" y2="2200" stroke-width="6.72"/><line stroke="#000" opacity="1" x1="500" y1="2200" x2="2400" y2="2200" stroke-width="6.72"/><line stroke="#00f" opacity="0.5757993627619662" x1="500" y1="846" x2="657" y2="902" stroke-width="6.72"/><line stroke="#f00" opacity="0.25660602751815076" x1="657" y1="902" x2="500" y2="1929" stroke-width="6.72"/><line stroke="#00f" opacity="0.5489479675192209" x1="1413" y1="400" x2="991" y2="683" stroke-width="6.72"/><line stroke="#f00" opacity="0.567321820094166" x1="991" y1="683" x2="500" y2="812" stroke-width="6.72"/><line stroke="#00f" opacity="0.8838773558376665" x1="987" y1="400" x2="1400" y2="1769" stroke-width="6.72"/><line stroke="#f00" opacity="0.3615930943641277" x1="1400" y1="1769" x2="500" y2="1478" stroke-width="6.72"/><line stroke="#00f" opacity="0.28947310833358847" x1="958" y1="400" x2="904" y2="1478" stroke-width="6.72"/><line stroke="#00f" opacity="0.8543743384747086" x1="904" y1="1478" x2="500" y2="1241" stroke-width="6.72"/><line stroke="#00f" opacity="0.5757993627619662" x1="2400" y1="846" x2="2243" y2="902" stroke-width="6.72"/><line stroke="#f00" opacity="0.25660602751815076" x1="2243" y1="902" x2="2400" y2="1929" stroke-width="6.72"/><line stroke="#00f" opacity="0.5489479675192209" x1="1487" y1="400" x2="1909" y2="683" stroke-width="6.72"/><line stroke="#f00" opacity="0.567321820094166" x1="1909" y1="683" x2="2400" y2="812" stroke-width="6.72"/><line stroke="#00f" opacity="0.8838773558376665" x1="1913" y1="400" x2="1500" y2="1769" stroke-width="6.72"/><line stroke="#f00" opacity="0.3615930943641277" x1="1500" y1="1769" x2="2400" y2="1478" stroke-width="6.72"/><line stroke="#00f" opacity="0.28947310833358847" x1="1942" y1="400" x2="1996" y2="1478" stroke-width="6.72"/><line stroke="#00f" opacity="0.8543743384747086" x1="1996" y1="1478" x2="2400" y2="1241" stroke-width="6.72"/></svg>