<svg xmlns="http://www.w3.org/2000/svg" viewBox="230.39999999999998 86.39999999999998 2419.2 2419.2"><line stroke="#000" opacity="1" x1="500" y1="400" x2="2400" y2="400" stroke-width="6.72"/><line stroke="#000" opacity="1" x1="2400" y1="400" x2="2400" y2="2200" stroke-width="6.72"/><line stroke="#000" opacity="1" x1="500" y1="400" x2="500" y2="2200" stroke-width="6.72"/><line stroke="#000" opacity="1" x1="500" y1="2200" x2="2400" y2="2200" stroke-width="6.72"/><line stroke="#f00" opacity="0.8329119413553027" x1="500" y1="2093" x2="804" y2="2154" stroke-width="6.72"/><line stroke="#00f" opacity="0.3713857164236446" x1="804" y1="2154" x2="1033" y2="400" stroke-width="6.72"/><line stroke="#00f" opacity="0.9413899510222905" x1="500" y1="2069" x2="999" y2="1700" stroke-width="6.72"/><line stroke="#f00" opacity="0.43677914651741967" x1="999" y1="1700" x2="1437" y2="400" stroke-width="6.72"/><line stroke="#f00" opacity="0.6318323436760171" x1="500" y1="751" x2="1077" y2="865" stroke-width="6.72"/><line stroke="#f00" opacity="0.37470741643793126" x1="1077" y1="865" x2="500" y2="2067" stroke-width="6.72"/><line stroke="#00f" opacity="0.3304895758198718" x1="1079" y1="400" x2="517" y2="1459" stroke-width="6.72"/><line stroke="#00f" opacity="0.342751354562305" x1="517" y1="1459" x2="500" y2="1888" stroke-width="6.72"/><line stroke="#f00" opacity="0.8329119413553027" x1="2400" y1="2093" x2="2096" y2="2154" stroke-width="6.72"/><line stroke="#00f" opacity="0.3713857164236446" x1="2096" y1="2154" x2="1867" y2="400" stroke-width="6.72"/><line stroke="#00f" opacity="0.9413899510222905" x1="2400" y1="2069" x2="1901" y2="1700" stroke-width="6.72"/><line stroke="#f00" opacity="0.43677914651741967" x1="1901" y1="1700" x2="1463" y2="400" stroke-width="6.72"/><line stroke="#f00" opacity="0.6318323436760171" x1="2400" y1="751" x2="1823" y2="865" stroke-width="6.72"/><line stroke="#f00" opacity="0.37470741643793126" x1="1823" y1="865" x2="2400" y2="2067" stroke-width="6.72"/><line stroke="#00f" opacity="0.3304895758198718" x1="1821" y1="400" x2="2383" y2="1459" stroke-width="6.72"/><line stroke="#00f" opacity="0.342751354562305" x1="2383" y1="1459" x2="2400" y2="1888" stroke-width="6.72"/></svg>