<svg xmlns="http://www.w3.org/2000/svg" viewBox="230.39999999999998 86.39999999999998 2419.2 2419.2"><line stroke="#000" opacity="1" x1="500" y1="400" x2="2400" y2="400" stroke-width="6.72"/><line stroke="#000" opacity="1" x1="2400" y1="400" x2="2400" y2="2200" stroke-width="6.72"/><line stroke="#000" opacity="1" x1="500" y1="400" x2="500" y2="2200" stroke-width="6.72"/><line stroke="#000" opacity="1" x1="500" y1="2200" x2="2400" y2="2200" stroke-width="6.72"/><line stroke="#f00" opacity="0.16778589498175733" x1="1007" y1="400" x2="1211" y2="1471" stroke-width="6.72"/><line stroke="#f00" opacity="0.4737929451002709" x1="1211" y1="1471" x2="1039" y2="400" stroke-width="6.72"/><line stroke="#00f" opacity="0.33556759740009634" x1="500" y1="1071" x2="1131" y2="689" stroke-width="6.72"/><line stroke="#00f" opacity="0.05808759938870589" x1="1131" y1="689" x2="500" y2="660" stroke-width="6.72"/><line stroke="#00f" opacity="0.2981664341554542" x1="744" y1="400" x2="612" y2="2012" stroke-width="6.72"/><line stroke="#f00" opacity="0.4629386279487363" x1="612" y1="2012" x2="500" y2="498" stroke-width="6.72"/><line stroke="#f00" opacity="0.5058368535376838" x1="811" y1="400" x2="1215" y2="1710" stroke-width="6.72"/><line stroke="#00f" opacity="0.4449686906210025" x1="1215" y1="1710" x2="500" y2="404" stroke-width="6.72"/><line stroke="#f00" opacity="0.16778589498175733" x1="1893" y1="400" x2="1689" y2="1471" stroke-width="6.72"/><line stroke="#f00" opacity="0.4737929451002709" x1="1689" y1="1471" x2="1861" y2="400" stroke-width="6.72"/><line stroke="#00f" opacity="0.33556759740009634" x1="2400" y1="1071" x2="1769" y2="689" stroke-width="6.72"/><line stroke="#00f" opacity="0.05808759938870589" x1="1769" y1="689" x2="2400" y2="660" stroke-width="6.72"/><line stroke="#00f" opacity="0.2981664341554542" x1="2156" y1="400" x2="2288" y2="2012" stroke-width="6.72"/><line stroke="#f00" opacity="0.4629386279487363" x1="2288" y1="2012" x2="2400" y2="498" stroke-width="6.72"/><line stroke="#f00" opacity="0.5058368535376838" x1="2089" y1="400" x2="1685" y2="1710" stroke-width="6.72"/><line stroke="#00f" opacity="0.4449686906210025" x1="1685" y1="1710" x2="2400" y2="404" stroke-width="6.72"/></svg>