<svg xmlns="http://www.w3.org/2000/svg" viewBox="230.39999999999998 86.39999999999998 2419.2 2419.2"><line stroke="#000" opacity="1" x1="500" y1="400" x2="2400" y2="400" stroke-width="6.72"/><line stroke="#000" opacity="1" x1="2400" y1="400" x2="2400" y2="2200" stroke-width="6.72"/><line stroke="#000" opacity="1" x1="500" y1="400" x2="500" y2="2200" stroke-width="6.72"/><line stroke="#000" opacity="1" x1="500" y1="2200" x2="2400" y2="2200" stroke-width="6.72"/><line stroke="#f00" opacity="0.7930866179263799" x1="500" y1="894" x2="1006" y2="1585" stroke-width="6.72"/><line stroke="#f00" opacity="0.9587181862252712" x1="1006" y1="1585" x2="762" y2="400" stroke-width="6.72"/><line stroke="#f00" opacity="0.6648198221058146" x1="500" y1="1163" x2="769" y2="1032" stroke-width="6.72"/><line stroke="#f00" opacity="0.6329831974350352" x1="769" y1="1032" x2="706" y2="400" stroke-width="6.72"/><line stroke="#00f" opacity="0.38727208699254423" x1="500" y1="2157" x2="1233" y2="1657" stroke-width="6.72"/><line stroke="#00f" opacity="0.5205977413861419" x1="1233" y1="1657" x2="500" y2="1449" stroke-width="6.72"/><line stroke="#00f" opacity="0.11877593301617861" x1="1062" y1="400" x2="1231" y2="2130" stroke-width="6.72"/><line stroke="#00f" opacity="0.683962634678127" x1="1231" y1="2130" x2="500" y2="1372" stroke-width="6.72"/><line stroke="#f00" opacity="0.7930866179263799" x1="2400" y1="894" x2="1894" y2="1585" stroke-width="6.72"/><line stroke="#f00" opacity="0.9587181862252712" x1="1894" y1="1585" x2="2138" y2="400" stroke-width="6.72"/><line stroke="#f00" opacity="0.6648198221058146" x1="2400" y1="1163" x2="2131" y2="1032" stroke-width="6.72"/><line stroke="#f00" opacity="0.6329831974350352" x1="2131" y1="1032" x2="2194" y2="400" stroke-width="6.72"/><line stroke="#00f" opacity="0.38727208699254423" x1="2400" y1="2157" x2="1667" y2="1657" stroke-width="6.72"/><line stroke="#00f" opacity="0.5205977413861419" x1="1667" y1="1657" x2="2400" y2="1449" stroke-width="6.72"/><line stroke="#00f" opacity="0.11877593301617861" x1="1838" y1="400" x2="1669" y2="2130" stroke-width="6.72"/><line stroke="#00f" opacity="0.683962634678127" x1="1669" y1="2130" x2="2400" y2="1372" stroke-width="6.72"/></svg>