<svg xmlns="http://www.w3.org/2000/svg" viewBox="230.39999999999998 86.39999999999998 2419.2 2419.2"><line stroke="#000" opacity="1" x1="500" y1="400" x2="2400" y2="400" stroke-width="6.72"/><line stroke="#000" opacity="1" x1="2400" y1="400" x2="2400" y2="2200" stroke-width="6.72"/><line stroke="#000" opacity="1" x1="500" y1="400" x2="500" y2="2200" stroke-width="6.72"/><line stroke="#000" opacity="1" x1="500" y1="2200" x2="2400" y2="2200" stroke-width="6.72"/><line stroke="#f00" opacity="0.7542614527789708" x1="500" y1="1300" x2="1348" y2="1539" stroke-width="6.72"/><line stroke="#f00" opacity="0.09250874353815552" x1="1348" y1="1539" x2="500" y2="1962" stroke-width="6.72"/><line stroke="#00f" opacity="0.6754870897894961" x1="500" y1="619" x2="1017" y2="2093" stroke-width="6.72"/><line stroke="#f00" opacity="0.5606935485369278" x1="1017" y1="2093" x2="500" y2="1440" stroke-width="6.72"/><line stroke="#f00" opacity="0.0873319079541407" x1="500" y1="2181" x2="706" y2="438" stroke-width="6.72"/><line stroke="#f00" opacity="0.5276307546736869" x1="706" y1="438" x2="500" y2="849" stroke-width="6.72"/><line stroke="#f00" opacity="0.688965549258661" x1="500" y1="2093" x2="1405" y2="1401" stroke-width="6.72"/><line stroke="#00f" opacity="0.5531925421192175" x1="1405" y1="1401" x2="1250" y2="400" stroke-width="6.72"/><line stroke="#f00" opacity="0.7542614527789708" x1="2400" y1="1300" x2="1552" y2="1539" stroke-width="6.72"/><line stroke="#f00" opacity="0.09250874353815552" x1="1552" y1="1539" x2="2400" y2="1962" stroke-width="6.72"/><line stroke="#00f" opacity="0.6754870897894961" x1="2400" y1="619" x2="1883" y2="2093" stroke-width="6.72"/><line stroke="#f00" opacity="0.5606935485369278" x1="1883" y1="2093" x2="2400" y2="1440" stroke-width="6.72"/><line stroke="#f00" opacity="0.0873319079541407" x1="2400" y1="2181" x2="2194" y2="438" stroke-width="6.72"/><line stroke="#f00" opacity="0.5276307546736869" x1="2194" y1="438" x2="2400" y2="849" stroke-width="6.72"/><line stroke="#f00" opacity="0.688965549258661" x1="2400" y1="2093" x2="1495" y2="1401" stroke-width="6.72"/><line stroke="#00f" opacity="0.5531925421192175" x1="1495" y1="1401" x2="1650" y2="400" stroke-width="6.72"/></svg>