<svg xmlns="http://www.w3.org/2000/svg" viewBox="230.39999999999998 86.39999999999998 2419.2 2419.2"><line stroke="#000" opacity="1" x1="500" y1="400" x2="2400" y2="400" stroke-width="6.72"/><line stroke="#000" opacity="1" x1="2400" y1="400" x2="2400" y2="2200" stroke-width="6.72"/><line stroke="#000" opacity="1" x1="500" y1="400" x2="500" y2="2200" stroke-width="6.72"/><line stroke="#000" opacity="1" x1="500" y1="2200" x2="2400" y2="2200" stroke-width="6.72"/><line stroke="#f00" opacity="1" x1="500" y1="1528" x2="969" y2="910" stroke-width="6.72"/><line stroke="#f00" opacity="1" x1="969" y1="910" x2="677" y2="598" stroke-width="6.72"/><line stroke="#f00" opacity="1" x1="677" y1="598" x2="500" y2="423" stroke-width="6.72"/><line stroke="#f00" opacity="1" x1="1282" y1="400" x2="1374" y2="1402" stroke-width="6.72"/><line stroke="#f00" opacity="1" x1="1374" y1="1402" x2="1094" y2="1485" stroke-width="6.72"/><line stroke="#f00" opacity="1" x1="1094" y1="1485" x2="500" y2="926" stroke-width="6.72"/><line stroke="#f00" opacity="1" x1="500" y1="1281" x2="1120" y2="2174" stroke-width="6.72"/><line stroke="#f00" opacity="1" x1="1120" y1="2174" x2="1435" y2="696" stroke-width="6.72"/><line stroke="#f00" opacity="1" x1="1435" y1="696" x2="500" y2="505" stroke-width="6.72"/><line stroke="#f00" opacity="1" x1="2400" y1="1528" x2="1931" y2="910" stroke-width="6.72"/><line stroke="#f00" opacity="1" x1="1931" y1="910" x2="2223" y2="598" stroke-width="6.72"/><line stroke="#f00" opacity="1" x1="2223" y1="598" x2="2400" y2="423" stroke-width="6.72"/><line stroke="#f00" opacity="1" x1="1618" y1="400" x2="1526" y2="1402" stroke-width="6.72"/><line stroke="#f00" opacity="1" x1="1526" y1="1402" x2="1806" y2="1485" stroke-width="6.72"/><line stroke="#f00" opacity="1" x1="1806" y1="1485" x2="2400" y2="926" stroke-width="6.72"/><line stroke="#f00" opacity="1" x1="2400" y1="1281" x2="1780" y2="2174" stroke-width="6.72"/><line stroke="#f00" opacity="1" x1="1780" y1="2174" x2="1465" y2="696" stroke-width="6.72"/><line stroke="#f00" opacity="1" x1="1465" y1="696" x2="2400" y2="505" stroke-width="6.72"/></svg>