<svg xmlns="http://www.w3.org/2000/svg" viewBox="230.39999999999998 86.39999999999998 2419.2 2419.2"><line stroke="#000" opacity="1" x1="500" y1="400" x2="2400" y2="400" stroke-width="6.72"/><line stroke="#000" opacity="1" x1="2400" y1="400" x2="2400" y2="2200" stroke-width="6.72"/><line stroke="#000" opacity="1" x1="500" y1="400" x2="500" y2="2200" stroke-width="6.72"/><line stroke="#000" opacity="1" x1="500" y1="2200" x2="2400" y2="2200" stroke-width="6.72"/><line stroke="#f00" opacity="1" x1="916" y1="400" x2="1252" y2="1282" stroke-width="6.72"/><line stroke="#f00" opacity="1" x1="1252" y1="1282" x2="1406" y2="896" stroke-width="6.72"/><line stroke="#f00" opacity="1" x1="1406" y1="896" x2="1087" y2="400" stroke-width="6.72"/><line stroke="#f00" opacity="1" x1="500" y1="1127" x2="669" y2="595" stroke-width="6.72"/><line stroke="#f00" opacity="1" x1="669" y1="595" x2="1262" y2="466" stroke-width="6.72"/><line stroke="#f00" opacity="1" x1="1262" y1="466" x2="500" y2="434" stroke-width="6.72"/><line stroke="#f00" opacity="1" x1="500" y1="752" x2="1118" y2="2105" stroke-width="6.72"/><line stroke="#f00" opacity="1" x1="1118" y1="2105" x2="1287" y2="740" stroke-width="6.72"/><line stroke="#f00" opacity="1" x1="1287" y1="740" x2="500" y2="1597" stroke-width="6.72"/><line stroke="#f00" opacity="1" x1="1984" y1="400" x2="1648" y2="1282" stroke-width="6.72"/><line stroke="#f00" opacity="1" x1="1648" y1="1282" x2="1494" y2="896" stroke-width="6.72"/><line stroke="#f00" opacity="1" x1="1494" y1="896" x2="1813" y2="400" stroke-width="6.72"/><line stroke="#f00" opacity="1" x1="2400" y1="1127" x2="2231" y2="595" stroke-width="6.72"/><line stroke="#f00" opacity="1" x1="2231" y1="595" x2="1638" y2="466" stroke-width="6.72"/><line stroke="#f00" opacity="1" x1="1638" y1="466" x2="2400" y2="434" stroke-width="6.72"/><line stroke="#f00" opacity="1" x1="2400" y1="752" x2="1782" y2="2105" stroke-width="6.72"/><line stroke="#f00" opacity="1" x1="1782" y1="2105" x2="1613" y2="740" stroke-width="6.72"/><line stroke="#f00" opacity="1" x1="1613" y1="740" x2="2400" y2="1597" stroke-width="6.72"/></svg>