<svg xmlns="http://www.w3.org/2000/svg" viewBox="230.39999999999998 86.39999999999998 2419.2 2419.2"><line stroke="#000" opacity="1" x1="500" y1="400" x2="2400" y2="400" stroke-width="6.72"/><line stroke="#000" opacity="1" x1="2400" y1="400" x2="2400" y2="2200" stroke-width="6.72"/><line stroke="#000" opacity="1" x1="500" y1="400" x2="500" y2="2200" stroke-width="6.72"/><line stroke="#000" opacity="1" x1="500" y1="2200" x2="2400" y2="2200" stroke-width="6.72"/><line stroke="#00f" opacity="0.7850294747155822" x1="500" y1="1643" x2="1409" y2="1268" stroke-width="6.72"/><line stroke="#00f" opacity="0.6825141746696837" x1="1409" y1="1268" x2="500" y2="2067" stroke-width="6.72"/><line stroke="#f00" opacity="0.06920994935861369" x1="1382" y1="400" x2="1033" y2="1480" stroke-width="6.72"/><line stroke="#00f" opacity="0.4591035832380176" x1="1033" y1="1480" x2="571" y2="400" stroke-width="6.72"/><line stroke="#f00" opacity="0.6949042484768219" x1="500" y1="2018" x2="535" y2="1890" stroke-width="6.72"/><line stroke="#00f" opacity="0.42545231759399427" x1="535" y1="1890" x2="638" y2="400" stroke-width="6.72"/><line stroke="#f00" opacity="0.5110552885752776" x1="500" y1="1031" x2="878" y2="1744" stroke-width="6.72"/><line stroke="#00f" opacity="0.8859215948443435" x1="878" y1="1744" x2="1326" y2="400" stroke-width="6.72"/><line stroke="#00f" opacity="0.7850294747155822" x1="2400" y1="1643" x2="1491" y2="1268" stroke-width="6.72"/><line stroke="#00f" opacity="0.6825141746696837" x1="1491" y1="1268" x2="2400" y2="2067" stroke-width="6.72"/><line stroke="#f00" opacity="0.06920994935861369" x1="1518" y1="400" x2="1867" y2="1480" stroke-width="6.72"/><line stroke="#00f" opacity="0.4591035832380176" x1="1867" y1="1480" x2="2329" y2="400" stroke-width="6.72"/><line stroke="#f00" opacity="0.6949042484768219" x1="2400" y1="2018" x2="2365" y2="1890" stroke-width="6.72"/><line stroke="#00f" opacity="0.42545231759399427" x1="2365" y1="1890" x2="2262" y2="400" stroke-width="6.72"/><line stroke="#f00" opacity="0.5110552885752776" x1="2400" y1="1031" x2="2022" y2="1744" stroke-width="6.72"/><line stroke="#00f" opacity="0.8859215948443435" x1="2022" y1="1744" x2="1574" y2="400" stroke-width="6.72"/></svg>